#N canvas 72 96 1848 984 12;
#X obj 62 20 tgl 15 0 empty empty empty 17 7 0 10 -262144 -1 -1 0 1
;
#X obj 63 116 bng 15 250 50 0 empty empty empty 17 7 0 10 -262144 -1
-1;
#X obj 291 148 phasor~;
#X obj 291 194 lop~ 6000;
#X floatatom 291 32 5 0 0 0 - - -;
#X obj 291 61 mtof;
#X floatatom 290 98 5 0 0 0 - - -;
#X msg 59 203 1 300;
#X obj 95 256 line 0 3;
#X floatatom 98 293 5 0 0 0 - - -;
#X obj 208 367 *~;
#X obj 205 427 throw~ out;
#X obj 350 440 catch~ out;
#X obj 447 26 tgl 15 0 empty empty empty 17 7 0 10 -262144 -1 -1 0
1;
#X obj 448 122 bng 15 250 50 0 empty empty empty 17 7 0 10 -262144
-1 -1;
#X obj 676 154 phasor~;
#X obj 676 200 lop~ 6000;
#X floatatom 676 43 5 0 0 0 - - -;
#X obj 676 67 mtof;
#X floatatom 675 104 5 0 0 0 - - -;
#X msg 444 209 1 300;
#X obj 480 262 line 0 3;
#X floatatom 483 299 5 0 0 0 - - -;
#X obj 593 373 *~;
#X obj 590 433 throw~ out;
#X floatatom 537 19 5 0 0 0 - - -;
#X obj 787 44 tgl 15 0 empty empty empty 17 7 0 10 -262144 -1 -1 0
1;
#X obj 788 140 bng 15 250 50 0 empty empty empty 17 7 0 10 -262144
-1 -1;
#X obj 1016 172 phasor~;
#X obj 1016 218 lop~ 6000;
#X floatatom 1016 61 5 0 0 0 - - -;
#X obj 1016 85 mtof;
#X floatatom 1015 122 5 0 0 0 - - -;
#X msg 784 227 1 300;
#X obj 820 280 line 0 3;
#X floatatom 823 317 5 0 0 0 - - -;
#X obj 933 391 *~;
#X obj 930 451 throw~ out;
#X floatatom 877 37 5 0 0 0 - - -;
#X obj 1153 55 tgl 15 0 empty empty empty 17 7 0 10 -262144 -1 -1 0
1;
#X obj 1154 151 bng 15 250 50 0 empty empty empty 17 7 0 10 -262144
-1 -1;
#X obj 1382 183 phasor~;
#X obj 1382 229 lop~ 6000;
#X floatatom 1382 72 5 0 0 0 - - -;
#X obj 1382 96 mtof;
#X floatatom 1381 133 5 0 0 0 - - -;
#X msg 1150 238 1 300;
#X obj 1186 291 line 0 3;
#X floatatom 1189 328 5 0 0 0 - - -;
#X obj 1299 402 *~;
#X obj 1296 462 throw~ out;
#X floatatom 1243 47 5 0 0 0 - - -;
#X obj 61 62 metro 8000;
#X obj 447 75 metro 8000;
#X obj 787 93 metro 8000;
#X obj 1153 104 metro 8000;
#X floatatom 153 8 5 0 0 0 - - -;
#X obj 105 154 delay;
#X obj 490 160 delay;
#X obj 830 178 delay;
#X obj 1195 189 delay;
#X floatatom 187 107 5 0 0 0 - - -;
#X floatatom 568 106 5 0 0 0 - - -;
#X floatatom 911 114 5 0 0 0 - - -;
#X floatatom 1275 130 5 0 0 0 - - -;
#X msg 125 205 0 400;
#X msg 513 212 0 400;
#X msg 852 228 0 400;
#X msg 1218 240 0 400;
#X obj 354 506 lop~ 4500;
#X text 197 5 perioada generatorului;
#X text 338 27 nota;
#X text 186 78 lungimea notei;
#X obj 357 577 *~ 0.13;
#X obj 354 688 throw~ interSignal;
#X obj 755 660 +~;
#X obj 755 690 delwrite~ c1 50;
#X obj 755 730 delread~ c1 29.3;
#X obj 755 760 *~ 0.84;
#X obj 885 660 +~;
#X obj 885 690 delwrite~ c2 50;
#X obj 885 730 delread~ c2 36.7;
#X obj 885 760 *~ 0.84;
#X obj 1015 660 +~;
#X obj 1015 690 delwrite~ c3 50;
#X obj 1015 730 delread~ c3 41.1;
#X obj 1015 760 *~ 0.84;
#X obj 1145 660 +~;
#X obj 1145 690 delwrite~ c4 50;
#X obj 1145 730 delread~ c4 45.3;
#X obj 1145 760 *~ 0.84;
#X obj 820 870 +~;
#X obj 1080 870 +~;
#X obj 950 930 +~;
#X obj 950 970 *~ 0.25;
#X obj 755 589 catch~ interSignal;
#X obj 964 1017 dac~;
#X connect 0 0 52 0;
#X connect 1 0 7 0;
#X connect 1 0 57 0;
#X connect 2 0 3 0;
#X connect 3 0 10 0;
#X connect 4 0 5 0;
#X connect 5 0 6 0;
#X connect 6 0 2 0;
#X connect 7 0 8 0;
#X connect 8 0 9 0;
#X connect 9 0 10 1;
#X connect 10 0 11 0;
#X connect 12 0 69 0;
#X connect 13 0 53 0;
#X connect 14 0 20 0;
#X connect 14 0 58 0;
#X connect 15 0 16 0;
#X connect 16 0 23 0;
#X connect 17 0 18 0;
#X connect 18 0 19 0;
#X connect 19 0 15 0;
#X connect 20 0 21 0;
#X connect 21 0 22 0;
#X connect 22 0 23 1;
#X connect 23 0 24 0;
#X connect 25 0 53 1;
#X connect 26 0 54 0;
#X connect 27 0 33 0;
#X connect 27 0 59 0;
#X connect 28 0 29 0;
#X connect 29 0 36 0;
#X connect 30 0 31 0;
#X connect 31 0 32 0;
#X connect 32 0 28 0;
#X connect 33 0 34 0;
#X connect 34 0 35 0;
#X connect 35 0 36 1;
#X connect 36 0 37 0;
#X connect 38 0 54 1;
#X connect 39 0 55 0;
#X connect 40 0 46 0;
#X connect 40 0 60 0;
#X connect 41 0 42 0;
#X connect 42 0 49 0;
#X connect 43 0 44 0;
#X connect 44 0 45 0;
#X connect 45 0 41 0;
#X connect 46 0 47 0;
#X connect 47 0 48 0;
#X connect 48 0 49 1;
#X connect 49 0 50 0;
#X connect 51 0 55 1;
#X connect 52 0 1 0;
#X connect 53 0 14 0;
#X connect 54 0 27 0;
#X connect 55 0 40 0;
#X connect 56 0 52 1;
#X connect 57 0 65 0;
#X connect 58 0 66 0;
#X connect 59 0 67 0;
#X connect 60 0 68 0;
#X connect 61 0 57 1;
#X connect 62 0 58 1;
#X connect 63 0 59 1;
#X connect 64 0 60 1;
#X connect 65 0 8 0;
#X connect 66 0 21 0;
#X connect 67 0 34 0;
#X connect 68 0 47 0;
#X connect 69 0 73 0;
#X connect 73 0 74 0;
#X connect 75 0 76 0;
#X connect 77 0 78 0;
#X connect 77 0 90 0;
#X connect 78 0 75 1;
#X connect 79 0 80 0;
#X connect 81 0 82 0;
#X connect 81 0 90 1;
#X connect 82 0 79 1;
#X connect 83 0 84 0;
#X connect 85 0 86 0;
#X connect 85 0 91 0;
#X connect 86 0 83 1;
#X connect 87 0 88 0;
#X connect 89 0 90 0;
#X connect 89 0 91 1;
#X connect 90 0 87 1;
#X connect 90 0 92 0;
#X connect 91 0 92 1;
#X connect 92 0 93 0;
#X connect 93 0 94 0;
#X connect 94 0 96 0;
#X connect 94 0 96 1;
#X connect 95 0 75 0;
#X connect 95 0 79 0;
#X connect 95 0 83 0;
#X connect 95 0 87 0;
