#N canvas 300 200 500 600 12;
#X obj 50 30 inlet~;
#X obj 50 90 +~;
#X obj 50 130 delwrite~ \$0-rev_d1 150;
#X obj 80 170 delread~ \$0-rev_d1 83;
#X obj 80 210 lop~ 2200;
#X obj 80 250 *~ 0.65;
#X obj 220 90 +~;
#X obj 220 130 delwrite~ \$0-rev_d2 150;
#X obj 250 170 delread~ \$0-rev_d2 113;
#X obj 250 210 lop~ 2800;
#X obj 250 250 *~ 0.6;
#X obj 150 310 +~;
#X obj 150 350 *~ 0.35;
#X obj 50 410 +~;
#X obj 50 460 outlet~;
#X connect 0 0 1 0;
#X connect 0 0 6 0;
#X connect 0 0 13 0;
#X connect 1 0 2 0;
#X connect 3 0 4 0;
#X connect 4 0 5 0;
#X connect 5 0 1 1;
#X connect 5 0 11 0;
#X connect 6 0 7 0;
#X connect 8 0 9 0;
#X connect 9 0 10 0;
#X connect 10 0 6 1;
#X connect 10 0 11 1;
#X connect 11 0 12 0;
#X connect 12 0 13 1;
#X connect 13 0 14 0;
